HIERARCHY
ROOT Hips
{
	OFFSET 0.000000 0.000000 0.000000 
	CHANNELS 6 Xposition Yposition Zposition Zrotation Yrotation Xrotation
	JOINT LeftUpLeg
	{
		OFFSET 1.363060 -1.794630 0.839290 
		CHANNELS 3 Zrotation Yrotation Xrotation
		JOINT LeftLeg
		{
			OFFSET 2.448110 -6.726130 0.000000 
			CHANNELS 3 Zrotation Yrotation Xrotation
			JOINT LeftFoot
			{
				OFFSET 2.562200 -7.039590 0.000000 
				CHANNELS 3 Zrotation Yrotation Xrotation
				JOINT LeftToeBase
				{
					OFFSET 0.157640 -0.433110 2.322550 
					CHANNELS 3 Zrotation Yrotation Xrotation
					End Site
					{
						OFFSET 0.000000 0.000000 0.000000 
					}
				}
			}
		}
	}
	JOINT RightUpLeg
	{
		OFFSET -1.305520 -1.794630 0.839290 
		CHANNELS 3 Zrotation Yrotation Xrotation
		JOINT RightLeg
		{
			OFFSET -2.542530 -6.985550 0.000000 
			CHANNELS 3 Zrotation Yrotation Xrotation
			JOINT RightFoot
			{
				OFFSET -2.568260 -7.056230 0.000000 
				CHANNELS 3 Zrotation Yrotation Xrotation
				JOINT RightToeBase
				{
					OFFSET -0.164730 -0.452590 2.363150 
					CHANNELS 3 Zrotation Yrotation Xrotation
					End Site
					{
						OFFSET 0.000000 0.000000 0.000000 
					}
				}
			}
		}
	}
	JOINT Spine
	{
		OFFSET 0.028270 2.035590 -0.193380 
		CHANNELS 3 Zrotation Yrotation Xrotation
		JOINT Spine1
		{
			OFFSET 0.056720 2.048850 -0.042750 
			CHANNELS 3 Zrotation Yrotation Xrotation
			JOINT Neck1
			{
				OFFSET -0.054170 1.746240 0.172020 
				CHANNELS 3 Zrotation Yrotation Xrotation
				JOINT Head
				{
					OFFSET 0.104070 1.761360 -0.123970 
					CHANNELS 3 Zrotation Yrotation Xrotation
					End Site
					{
						OFFSET 0.000000 0.000000 0.000000 
					}
				}
			}
			JOINT LeftArm
			{
				OFFSET 3.362410 1.200890 -0.311210 
				CHANNELS 3 Zrotation Yrotation Xrotation
				JOINT LeftForeArm
				{
					OFFSET 4.983000 -0.000000 -0.000000 
					CHANNELS 3 Zrotation Yrotation Xrotation
					JOINT LeftHand
					{
						OFFSET 3.483560 -0.000000 -0.000000 
						CHANNELS 3 Zrotation Yrotation Xrotation
						JOINT LeftHandIndex1
						{
							OFFSET 0.715260 -0.000000 -0.000000 
							CHANNELS 3 Zrotation Yrotation Xrotation
							End Site
							{
								OFFSET 0.000000 0.000000 0.000000 
							}
						}
					}
				}
			}
			JOINT RightArm
			{
				OFFSET -3.136600 1.374050 -0.404650 
				CHANNELS 3 Zrotation Yrotation Xrotation
				JOINT RightForeArm
				{
					OFFSET -5.241900 -0.000000 -0.000000 
					CHANNELS 3 Zrotation Yrotation Xrotation
					JOINT RightHand
					{
						OFFSET -3.444170 -0.000000 -0.000000 
						CHANNELS 3 Zrotation Yrotation Xrotation
						JOINT RightHandIndex1
						{
							OFFSET -0.622530 -0.000000 -0.000000 
							CHANNELS 3 Zrotation Yrotation Xrotation
							End Site
							{
								OFFSET 0.000000 0.000000 0.000000 
							}
						}
					}
				}
			}
		}
	}
}
MOTION
Frames: 11
Frame Time: 0.041667
9.418930 18.045535 -15.379208 -5.187229 8.887026 1.943954 -4.231175 2.089896 -24.584670 6.404447 15.929630 48.659288 0.706274 -2.253457 8.142005 1.111200 6.697200 18.821200 28.608743 0.865077 8.104829 0.745830 -3.282442 5.463992 0.300369 -9.032567 -17.092258 -0.087900 -1.912100 5.262700 1.172547 3.993996 -4.566057 -4.897969 2.372068 1.250216 5.712952 -5.248798 9.156427 1.825500 -2.452500 1.152200 -80.675888 5.609617 36.260435 11.234661 -15.791137 -1.652818 0.408766 0.376386 -8.425523 -7.125000 0.000000 0.000000 80.468406 -5.757365 28.329525 -18.189159 22.869300 -5.465990 1.500352 2.185414 3.739149 7.125000 0.000000 0.000000 
9.432780 18.034774 -15.231842 -5.238144 8.601200 2.023365 -4.147514 2.033732 -24.895440 5.750184 15.358895 46.284246 0.759419 -2.374813 8.260569 1.059500 6.544400 18.372600 28.731531 0.810346 8.627996 0.748184 -3.241665 5.362242 0.254123 -8.781598 -17.345463 -0.079200 -1.814900 4.994400 1.110246 4.150199 -4.573668 -5.062087 2.450337 1.267782 5.621283 -5.185224 9.157241 1.803200 -2.421900 1.146200 -80.667574 5.983510 35.542273 11.309014 -15.886761 -1.673392 0.400373 0.380799 -8.988577 -7.125000 0.000000 0.000000 80.178316 -5.390811 28.345035 -18.492389 23.200523 -5.581168 1.491675 2.180160 3.359959 7.125000 0.000000 0.000000 
9.447626 18.022020 -15.084377 -5.286520 8.321951 2.131508 -4.055074 1.940552 -25.147098 5.083365 14.733280 43.782292 0.789230 -2.307041 8.355775 0.999100 6.360900 17.835300 28.819947 0.740068 9.089897 0.747532 -3.214357 5.296698 0.200809 -8.478366 -17.587859 -0.072200 -1.733800 4.770500 1.047042 4.300876 -4.585923 -5.225902 2.525642 1.290489 5.558269 -5.119423 9.195785 1.791200 -2.389000 1.161600 -80.666177 6.341817 34.882354 11.376054 -15.971737 -1.690843 0.390065 0.383939 -9.480905 -7.125000 0.000000 0.000000 79.904381 -5.030608 28.326832 -18.805575 23.543750 -5.707772 1.481720 2.178208 3.009943 7.125000 0.000000 0.000000 
9.463369 18.007274 -14.936215 -5.326588 8.047946 2.259375 -3.953295 1.816534 -25.328393 4.410619 14.050617 41.160399 0.795388 -2.059705 8.470511 0.952900 6.216200 17.413000 28.872985 0.660037 9.511360 0.744391 -3.199785 5.266108 0.141644 -8.132553 -17.823564 -0.066500 -1.664400 4.579100 0.985781 4.442508 -4.601620 -5.374735 2.596516 1.319402 5.515237 -5.053384 9.247559 1.787400 -2.355700 1.184600 -80.684045 6.682946 34.260810 11.423357 -16.030574 -1.702753 0.379102 0.386541 -9.874592 -7.125000 0.000000 0.000000 79.626633 -4.668893 28.309502 -19.113619 23.882183 -5.839142 1.470815 2.180148 2.643758 7.125000 0.000000 0.000000 
9.479511 17.990933 -14.786259 -5.359441 7.774043 2.394591 -3.833838 1.673652 -25.424289 3.738978 13.307778 38.422885 0.784525 -1.689122 8.635907 0.933400 6.154200 17.232500 28.903824 0.589047 9.929547 0.740201 -3.190679 5.250562 0.079491 -7.769194 -18.062010 -0.062300 -1.610000 4.429000 0.926932 4.580060 -4.623039 -5.502576 2.664686 1.344624 5.478520 -4.992687 9.297739 1.784800 -2.325200 1.203300 -80.720769 7.014825 33.668869 11.437158 -16.045949 -1.705710 0.369453 0.388705 -10.149828 -7.125000 0.000000 0.000000 79.341955 -4.307724 28.300236 -19.396643 24.192049 -5.963192 1.461287 2.183201 2.263497 7.125000 0.000000 0.000000 
9.496350 17.972699 -14.634211 -5.380249 7.502215 2.531287 -3.703538 1.514293 -25.431118 3.077689 12.504877 35.583477 0.764434 -1.258636 8.848432 0.946400 6.195600 17.353000 28.907208 0.516344 10.360053 0.735195 -3.181626 5.235452 0.014372 -7.388176 -18.302407 -0.060900 -1.592200 4.379900 0.867172 4.714793 -4.650560 -5.615298 2.730692 1.362476 5.452914 -4.931410 9.346608 1.783600 -2.294600 1.215400 -80.773075 7.346386 33.076656 11.415898 -16.017074 -1.699831 0.363523 0.389791 -10.275335 -7.125000 0.000000 0.000000 79.054642 -3.954366 28.301552 -19.652405 24.468390 -6.073871 1.455631 2.182823 1.899520 7.125000 0.000000 0.000000 
9.514284 17.952373 -14.479970 -5.391949 7.234523 2.669305 -3.565702 1.338219 -25.357440 2.439235 11.647967 32.670888 0.736851 -0.800978 9.043357 0.969300 6.268000 17.564000 28.880898 0.420786 10.796351 0.728811 -3.172038 5.219415 -0.054321 -6.979816 -18.535370 -0.062100 -1.607500 4.422000 0.807848 4.841489 -4.681687 -5.717412 2.792083 1.375007 5.441134 -4.861745 9.385653 1.786400 -2.260000 1.220800 -80.847731 7.676096 32.455863 11.367224 -15.954344 -1.686850 0.361751 0.389130 -10.253551 -7.125000 0.000000 0.000000 78.762710 -3.612413 28.316016 -19.893895 24.725056 -6.175116 1.454057 2.177563 1.566393 7.125000 0.000000 0.000000 
9.533315 17.930054 -14.323936 -5.416522 6.960068 2.808284 -3.396096 1.150927 -25.214663 1.837597 10.746279 29.720841 0.698768 -0.325519 9.139835 0.973200 6.280500 17.600400 28.854627 0.312262 11.227882 0.721661 -3.164885 5.208891 -0.124892 -6.555854 -18.761250 -0.064000 -1.632300 4.490500 0.754964 4.959222 -4.715674 -5.810222 2.848318 1.377580 5.404386 -4.785505 9.399177 1.779400 -2.222500 1.216600 -80.948621 8.000986 31.813919 11.301232 -15.869711 -1.668958 0.362164 0.386281 -10.115762 -7.125000 0.000000 0.000000 78.462550 -3.275805 28.344878 -20.127162 24.969324 -6.270303 1.456186 2.167891 1.286939 7.125000 0.000000 0.000000 
9.553044 17.905742 -14.166607 -5.474185 6.668698 2.945478 -3.171649 0.950239 -25.006613 1.282672 9.808734 26.759418 0.642854 0.182909 9.090384 0.953400 6.217800 17.417700 28.855936 0.195396 11.645631 0.714341 -3.164522 5.214041 -0.194995 -6.132767 -18.975943 -0.064000 -1.631800 4.489000 0.712683 5.069770 -4.747715 -5.895674 2.900636 1.379883 5.321187 -4.704184 9.372670 1.754100 -2.183000 1.200000 -81.076222 8.310490 31.152681 11.224683 -15.771922 -1.647705 0.364082 0.381394 -9.878616 -7.125000 0.000000 0.000000 78.151906 -2.935591 28.389692 -20.358329 25.208140 -6.362734 1.461010 2.154436 1.071352 7.125000 0.000000 0.000000 
9.573669 17.879737 -14.007584 -5.558696 6.358879 3.077820 -2.901072 0.719233 -24.732267 0.780615 8.847378 23.812594 0.559811 0.750491 8.865990 0.918200 6.105100 17.089700 28.876916 0.060356 12.048223 0.707054 -3.172401 5.239056 -0.261493 -5.728971 -19.172288 -0.057300 -1.544000 4.246900 0.680795 5.176624 -4.771030 -5.968880 2.951748 1.400841 5.199549 -4.624456 9.294790 1.714700 -2.145100 1.168400 -81.227300 8.585756 30.494880 11.134078 -15.656064 -1.622831 0.367068 0.375642 -9.569853 -7.125000 0.000000 0.000000 77.835458 -2.595598 28.432620 -20.600233 25.457003 -6.460503 1.465955 2.139707 0.905130 7.125000 0.000000 0.000000 
9.595291 17.852037 -13.846966 -5.652894 6.038900 3.201352 -2.605756 0.434238 -24.390426 0.335330 7.876455 20.909364 0.446492 1.376521 8.468266 0.893300 6.024100 16.854300 28.894880 -0.100252 12.442672 0.700231 -3.187723 5.281760 -0.322817 -5.358539 -19.355357 -0.043900 -1.353000 3.720600 0.653430 5.279207 -4.787968 -6.034886 3.000847 1.435015 5.059745 -4.552500 9.180166 1.668200 -2.111600 1.124500 -81.383749 8.837006 29.890814 11.036263 -15.530467 -1.596086 0.369721 0.369863 -9.235918 -7.125000 0.000000 0.000000 77.532495 -2.275826 28.464695 -20.860679 25.725706 -6.569878 1.469561 2.125790 0.780105 7.125000 0.000000 0.000000 
